HIERARCHY
ROOT joint_Root
{
	OFFSET 0.0 0.0 0.0
	CHANNELS 6 Xposition Yposition Zposition Zrotation Xrotation Yrotation 
	JOINT Hips
	{
		OFFSET -17.1583 93.1646 452.98
		CHANNELS 6 Xposition Yposition Zposition Zrotation Xrotation Yrotation 
		JOINT Spine
		{
			OFFSET 15.7357 0.0 0.0
			CHANNELS 6 Xposition Yposition Zposition Zrotation Xrotation Yrotation 
			JOINT Chest
			{
				OFFSET 8.98455 -0.406207 0.0
				CHANNELS 6 Xposition Yposition Zposition Zrotation Xrotation Yrotation 
				JOINT Neck
				{
					OFFSET 16.3773 0.0 0.0
					CHANNELS 6 Xposition Yposition Zposition Zrotation Xrotation Yrotation 
					JOINT Head
					{
						OFFSET 6.45672 0.0 0.0
						CHANNELS 6 Xposition Yposition Zposition Zrotation Xrotation Yrotation 
						End Site
						{
							OFFSET 0.0 0.0 0.0
						}
					}
				}
				JOINT Shoulder_L
				{
					OFFSET 12.9942 -0.242716 4.98039
					CHANNELS 6 Xposition Yposition Zposition Zrotation Xrotation Yrotation 
					JOINT UpperArm_L
					{
						OFFSET 5.34809 0.0 0.0
						CHANNELS 6 Xposition Yposition Zposition Zrotation Xrotation Yrotation 
						JOINT LowerArm_L
						{
							OFFSET 24.3286 1.87007e-05 0.0
							CHANNELS 6 Xposition Yposition Zposition Zrotation Xrotation Yrotation 
							JOINT Hand_L
							{
								OFFSET 22.2916 0.0 0.0
								CHANNELS 6 Xposition Yposition Zposition Zrotation Xrotation Yrotation 
								End Site
								{
									OFFSET 0.0 0.0 0.0
								}
							}
						}
					}
				}
				JOINT Shoulder_R
				{
					OFFSET 12.9945 -0.242716 -4.98039
					CHANNELS 6 Xposition Yposition Zposition Zrotation Xrotation Yrotation 
					JOINT UpperArm_R
					{
						OFFSET -5.34813 0.0 0.0
						CHANNELS 6 Xposition Yposition Zposition Zrotation Xrotation Yrotation 
						JOINT LowerArm_R
						{
							OFFSET -24.3289 0.000322201 0.0
							CHANNELS 6 Xposition Yposition Zposition Zrotation Xrotation Yrotation 
							JOINT Hand_R
							{
								OFFSET -22.2915 -0.000108084 0.0
								CHANNELS 6 Xposition Yposition Zposition Zrotation Xrotation Yrotation 
								End Site
								{
									OFFSET 0.0 0.0 0.0
								}
							}
						}
					}
				}
			}
		}
		JOINT UpperLeg_L
		{
			OFFSET -2.19248 -6.46944 0.0
			CHANNELS 6 Xposition Yposition Zposition Zrotation Xrotation Yrotation 
			JOINT LowerLeg_L
			{
				OFFSET 39.0811 0.0 -1.23785e-05
				CHANNELS 6 Xposition Yposition Zposition Zrotation Xrotation Yrotation 
				JOINT Foot_L
				{
					OFFSET 40.9854 0.0 -1.26872e-05
					CHANNELS 6 Xposition Yposition Zposition Zrotation Xrotation Yrotation 
					JOINT Toes_L
					{
						OFFSET 11.7543 0.0 0.0
						CHANNELS 6 Xposition Yposition Zposition Zrotation Xrotation Yrotation 
						End Site
						{
							OFFSET 0.0 0.0 0.0
						}
					}
				}
			}
		}
		JOINT UpperLeg_R
		{
			OFFSET -2.19251 6.46944 0.0
			CHANNELS 6 Xposition Yposition Zposition Zrotation Xrotation Yrotation 
			JOINT LowerLeg_R
			{
				OFFSET -39.0811 -0.00228153 -0.0401928
				CHANNELS 6 Xposition Yposition Zposition Zrotation Xrotation Yrotation 
				JOINT Foot_R
				{
					OFFSET -40.9854 0.0 0.0
					CHANNELS 6 Xposition Yposition Zposition Zrotation Xrotation Yrotation 
					JOINT Toes_R
					{
						OFFSET -11.7543 0.0 0.0
						CHANNELS 6 Xposition Yposition Zposition Zrotation Xrotation Yrotation 
						End Site
						{
							OFFSET 0.0 0.0 0.0
						}
					}
				}
			}
		}
	}
}
MOTION
Frames:	5
Frame Time:	0.0333333
0.000000 0.000000 0.000000 0.000000 0.000000 -0.000000 -1.721050 90.350400 11.491800 88.328600 -0.263273 9.155320 15.735700 0.000005 -0.000001 -75.811200 88.135100 77.724200 8.984550 -0.406207 -0.000000 -11.360000 -1.227690 3.719610 16.377300 -0.000001 -0.000001 3.416430 5.701850 -6.226080 6.456720 -0.000001 -0.000000 8.354480 6.086990 -9.188830 12.994200 -0.242716 4.980390 -89.844100 -0.315191 -63.673300 5.348090 -0.000007 -0.000001 -47.240200 -57.792500 -92.679000 24.328600 0.000019 0.000005 0.237524 8.150160 -1.674640 22.291600 -0.000001 0.000005 49.930800 3.955660 24.852600 12.994500 -0.242716 -4.980390 93.099000 -6.055860 -62.833700 -5.348130 -0.000001 -0.000004 -51.480700 -60.352100 -105.030000 -24.328900 0.000322 -0.000009 -0.001038 -3.473880 -0.000026 -22.291500 -0.000108 -0.000004 39.605600 5.413330 -3.376010 -2.192480 -6.469440 -0.000000 -169.768000 -7.302720 13.753100 39.081100 -0.000007 -0.000012 0.061189 -0.171373 19.649200 40.985400 -0.000006 -0.000013 0.029626 16.201700 -77.583300 11.754300 -0.000000 0.000003 -0.002228 0.199166 -8.496160 -2.192510 6.469440 -0.000001 175.898000 6.107980 -165.771000 -39.081100 -0.002282 -0.040193 0.015595 -0.035302 19.169700 -40.985400 0.000008 0.000006 -5.338220 6.612330 -78.481600 -11.754300 -0.000006 -0.000006 -0.010817 0.277309 -5.305360
0.000000 0.000000 0.000000 0.000000 0.000000 -0.000000 -1.704380 90.337000 11.526800 88.318900 -0.183817 9.175830 15.735700 0.000005 -0.000001 -75.185300 88.155500 77.110500 8.984550 -0.406207 -0.000000 -11.309800 -1.257800 3.741580 16.377300 -0.000001 -0.000001 3.565360 5.648910 -6.358880 6.456720 -0.000001 -0.000000 8.280120 5.973050 -9.356560 12.994200 -0.242716 4.980390 -89.843800 -0.314966 -63.619000 5.348090 -0.000007 -0.000001 -47.195600 -57.727700 -92.800000 24.328600 0.000019 0.000005 0.237124 8.297940 -1.642260 22.291600 -0.000001 0.000005 50.181000 3.960810 24.780300 12.994500 -0.242716 -4.980390 93.114100 -6.078770 -62.807800 -5.348130 -0.000001 -0.000004 -51.296400 -60.230000 -104.952000 -24.328900 0.000322 -0.000009 -0.001036 -3.680720 -0.000027 -22.291500 -0.000108 -0.000004 39.912800 5.411040 -3.299950 -2.192480 -6.469440 -0.000000 -169.767000 -7.242100 13.746200 39.081100 -0.000007 -0.000012 0.062185 -0.173540 19.714200 40.985400 -0.000006 -0.000013 0.063323 16.243400 -77.610900 11.754300 -0.000000 0.000003 -0.002147 0.198171 -8.536640 -2.192510 6.469440 -0.000001 175.926000 6.041520 -165.718000 -39.081100 -0.002282 -0.040193 0.013408 -0.029013 19.168300 -40.985400 0.000008 0.000006 -5.419340 6.506190 -78.506400 -11.754300 -0.000006 -0.000006 -0.010540 0.275300 -5.387540
0.000000 0.000000 0.000000 0.000000 0.000000 -0.000000 -1.665390 90.333200 11.590600 88.409700 -0.126305 9.194430 15.735700 0.000005 -0.000001 -75.176100 88.175800 77.067000 8.984550 -0.406207 -0.000000 -11.271100 -1.241760 3.674660 16.377300 -0.000001 -0.000001 3.675910 5.580810 -6.475210 6.456720 -0.000001 -0.000000 8.246310 5.836820 -9.380580 12.994200 -0.242716 4.980390 -89.843200 -0.315525 -63.579700 5.348090 -0.000007 -0.000001 -47.407200 -57.673700 -93.135400 24.328600 0.000019 0.000005 0.238420 8.171370 -1.676610 22.291600 -0.000001 0.000005 50.413100 3.967320 24.688600 12.994500 -0.242716 -4.980390 93.109500 -6.057590 -62.760800 -5.348130 -0.000001 -0.000004 -51.711800 -60.014400 -105.354000 -24.328900 0.000322 -0.000009 -0.001037 -3.257900 -0.000025 -22.291500 -0.000108 -0.000004 40.137900 5.401700 -2.992830 -2.192480 -6.469440 -0.000000 -169.866000 -7.263750 13.885400 39.081100 -0.000007 -0.000012 0.062550 -0.175956 19.569700 40.985400 -0.000006 -0.000013 0.083958 16.275900 -77.642100 11.754300 -0.000000 0.000003 -0.002151 0.198225 -8.534430 -2.192510 6.469440 -0.000001 175.740000 6.174120 -165.611000 -39.081100 -0.002282 -0.040193 0.010847 -0.021709 19.116600 -40.985400 0.000008 0.000006 -5.511360 6.631220 -78.499800 -11.754300 -0.000006 -0.000006 -0.010794 0.277145 -5.312080
0.000000 0.000000 0.000000 0.000000 0.000000 -0.000000 -1.644750 90.310600 11.663600 88.412200 -0.017406 9.170700 15.735700 0.000005 -0.000001 -74.746900 88.175300 76.633000 8.984550 -0.406207 -0.000000 -11.264600 -1.267330 3.662470 16.377300 -0.000001 -0.000001 3.813940 5.520070 -6.619920 6.456720 -0.000001 -0.000000 8.171380 5.690040 -9.358240 12.994200 -0.242716 4.980390 -89.837200 -0.327322 -63.555200 5.348090 -0.000007 -0.000001 -47.333700 -57.615800 -93.175600 24.328600 0.000019 0.000005 0.223829 8.195230 -1.569490 22.291600 -0.000001 0.000005 50.872300 3.973010 24.608300 12.994500 -0.242716 -4.980390 93.122400 -6.064190 -62.689800 -5.348130 -0.000001 -0.000004 -51.573400 -59.900200 -105.303000 -24.328900 0.000322 -0.000009 -0.001038 -3.192780 -0.000024 -22.291500 -0.000108 -0.000004 39.789900 5.395090 -2.778440 -2.192480 -6.469440 -0.000000 -169.825000 -7.318490 13.876200 39.081100 -0.000007 -0.000012 0.061893 -0.173704 19.611900 40.985400 -0.000006 -0.000013 0.138569 16.442000 -77.650400 11.754300 -0.000000 0.000003 -0.002005 0.196404 -8.608480 -2.192510 6.469440 -0.000001 175.773000 6.103990 -165.577000 -39.081100 -0.002282 -0.040193 0.009948 -0.019114 19.116200 -40.985400 0.000008 0.000006 -5.575990 6.485060 -78.524600 -11.754300 -0.000006 -0.000006 -0.010407 0.274325 -5.427460
0.000000 0.000000 0.000000 0.000000 0.000000 -0.000000 -1.607900 90.297200 11.743300 88.474700 0.072677 9.097870 15.735700 0.000005 -0.000001 -74.139900 88.146900 76.005900 8.984550 -0.406207 -0.000000 -11.308500 -1.317140 3.616860 16.377300 -0.000001 -0.000001 3.933350 5.457490 -6.729450 6.456720 -0.000001 -0.000000 8.121670 5.597890 -9.336130 12.994200 -0.242716 4.980390 -89.830700 -0.339831 -63.521200 5.348090 -0.000007 -0.000001 -47.441100 -57.596000 -93.240600 24.328600 0.000019 0.000005 0.226686 8.368280 -1.556880 22.291600 -0.000001 0.000005 51.113200 3.959700 24.795800 12.994500 -0.242716 -4.980390 93.137800 -6.087450 -62.663200 -5.348130 -0.000001 -0.000004 -51.653600 -59.703600 -105.405000 -24.328900 0.000322 -0.000009 -0.001037 -3.133870 -0.000024 -22.291500 -0.000108 -0.000004 39.409400 5.386250 -2.495940 -2.192480 -6.469440 -0.000000 -169.943000 -7.235370 13.880300 39.081100 -0.000007 -0.000012 0.063089 -0.177718 19.544900 40.985400 -0.000006 -0.000013 0.171849 16.436700 -77.706500 11.754300 -0.000000 0.000003 -0.002020 0.196596 -8.600700 -2.192510 6.469440 -0.000001 175.716000 6.052770 -165.574000 -39.081100 -0.002282 -0.040193 0.010342 -0.020273 19.096100 -40.985400 0.000008 0.000006 -5.670040 6.383380 -78.623600 -11.754300 -0.000006 -0.000006 -0.010941 0.278205 -5.268670
